<svg width="60" height="60" viewBox="0 0 60 60" fill="none" xmlns="http://www.w3.org/2000/svg">
<path d="M58.2207 29.5862L50.2925 34.3911V30.5884C50.2925 29.6776 49.2942 29.1128 48.5133 29.5862L40.5851 34.3911V30.5884C40.5851 29.6776 39.5868 29.1128 38.8058 29.5862L30.8777 34.3911V30.5884C30.8777 29.6775 29.8793 29.113 29.0985 29.5862L19.6711 35.2998H17.5339C17.1541 31.3121 15.5824 14.8085 15.2817 11.6507C15.2244 11.0492 14.7192 10.5899 14.1151 10.5899H5.87848C5.27437 10.5899 4.76918 11.0491 4.71187 11.6507C4.44176 14.4868 2.83746 31.3324 2.45965 35.2998H1.17188C0.524648 35.2998 0 35.8244 0 36.4717V58.8281C0 59.4753 0.524648 60 1.17188 60H58.8281C59.4752 60 60 59.4753 60 58.8281V30.5884C60 29.6776 59.0017 29.1128 58.2207 29.5862ZM13.8349 21.1799H6.15879C6.28559 19.8487 6.36996 18.9623 6.49582 17.6403H13.4978C13.6236 18.9609 13.7082 19.8505 13.8349 21.1799ZM13.0495 12.9336L13.2745 15.2966H6.71906L6.94406 12.9336H13.0495ZM5.93555 23.5236H14.058L15.1795 35.2998H4.81406L5.93555 23.5236ZM2.34375 37.6435H18.8265V57.6562H16.4637V41.1783C16.4637 40.531 15.9389 40.0064 15.2918 40.0064H5.87848C5.23125 40.0064 4.7066 40.531 4.7066 41.1783V57.6562H2.34375V37.6435ZM7.05035 57.6562V42.3501H14.1199V57.6562H7.05035ZM57.6562 57.6562H21.1703V37.1317L28.534 32.6688V36.4716C28.534 37.3823 29.5323 37.9472 30.3132 37.4737L38.2413 32.6688V36.4716C38.2413 37.3825 39.2398 37.9469 40.0206 37.4737L47.9488 32.6688V36.4716C47.9488 37.3825 48.9472 37.9469 49.728 37.4737L57.6562 32.6688V57.6562Z" fill="black"/>
<path d="M10.585 2.34375C11.1125 2.34375 11.3088 2.47465 11.6999 2.73527C12.1969 3.06668 12.8775 3.52043 14.1149 3.52043C15.3523 3.52043 16.0329 3.06668 16.5299 2.73527C16.9208 2.47453 17.117 2.34375 17.6446 2.34375C18.1724 2.34375 18.3687 2.47465 18.7597 2.73527C19.2567 3.06656 19.9376 3.52043 21.1748 3.52043C22.4122 3.52043 23.0928 3.06668 23.5898 2.73527C23.9809 2.47453 24.1772 2.34375 24.705 2.34375C25.3521 2.34375 25.8769 1.8191 25.8769 1.17187C25.8769 0.524648 25.3521 0 24.705 0C23.4676 0 22.7869 0.453867 22.2899 0.785156C21.8988 1.04578 21.7025 1.17668 21.1748 1.17668C20.647 1.17668 20.4507 1.04578 20.0597 0.785156C19.5627 0.453867 18.8818 0 17.6445 0C16.4072 0 15.7266 0.453867 15.2297 0.785156C14.8386 1.04578 14.6423 1.17668 14.1148 1.17668C13.5872 1.17668 13.3909 1.04578 12.9998 0.785156C12.5029 0.453867 11.8223 0 10.585 0C9.93785 0 9.41309 0.524648 9.41309 1.17187C9.41309 1.8191 9.93785 2.34375 10.585 2.34375Z" fill="black"/>
<path d="M22.3505 5.88327C21.1131 5.88327 20.4326 6.33714 19.9356 6.66843C19.5446 6.92905 19.3483 7.05995 18.8207 7.05995C18.2931 7.05995 18.097 6.92917 17.706 6.66843C17.209 6.33702 16.5283 5.88327 15.291 5.88327C14.6439 5.88327 14.1191 6.40792 14.1191 7.05515C14.1191 7.70237 14.6439 8.22702 15.291 8.22702C15.8186 8.22702 16.0149 8.35792 16.4059 8.61854C16.9028 8.94995 17.5836 9.4037 18.8207 9.4037C20.0581 9.4037 20.7386 8.94995 21.2356 8.61854C21.6266 8.35792 21.8229 8.22702 22.3505 8.22702C22.8782 8.22702 23.0745 8.35792 23.4655 8.61854C23.9625 8.94995 24.6434 9.4037 25.8807 9.4037C27.1179 9.4037 27.7987 8.94995 28.2957 8.61854C28.6867 8.3578 28.883 8.22702 29.4108 8.22702C30.058 8.22702 30.5827 7.70237 30.5827 7.05515C30.5827 6.40792 30.058 5.88327 29.4108 5.88327C28.1734 5.88327 27.4927 6.33714 26.9957 6.66843C26.6046 6.92905 26.4084 7.05995 25.8807 7.05995C25.3529 7.05995 25.1566 6.92905 24.7655 6.66843C24.2686 6.33714 23.5879 5.88327 22.3505 5.88327Z" fill="black"/>
<path d="M27.0586 42.3596C26.4115 42.3596 25.8867 42.8843 25.8867 43.5315V51.7682C25.8867 52.4154 26.4115 52.94 27.0586 52.94H51.7684C52.4155 52.94 52.9403 52.4154 52.9403 51.7682V43.5315C52.9403 42.8843 52.4155 42.3596 51.7684 42.3596C46.851 42.3596 32.0044 42.3596 27.0586 42.3596ZM28.2305 44.7034H34.1232V50.5963H28.2305V44.7034ZM36.4671 44.7034H42.36V50.5963H36.4671V44.7034ZM50.5965 50.5963H44.7037V44.7034H50.5965V50.5963Z" fill="black"/>
</svg>
