<svg width="30" height="30" viewBox="0 0 30 30" fill="none" xmlns="http://www.w3.org/2000/svg">
<path d="M21.1762 0C17.5658 0 12.8715 0 8.82324 0V2.64706H21.1762C21.1762 2.32682 21.1762 0.322412 21.1762 0Z" fill="#AAAAAA"/>
<path d="M30.0002 11.4705C30.0002 10.6751 30.0002 9.79843 30.0002 8.82349C28.5744 8.82349 25.5366 8.82349 24.7061 8.82349V30H30.0002C30.0002 29.0251 30.0002 28.1484 30.0002 27.3529C29.0405 27.3529 27.6509 27.3529 27.3531 27.3529C27.3531 26.7357 27.3531 26.2054 27.3531 25.5882H30.0002C30.0002 24.9413 30.0002 24.3577 30.0002 23.8235C29.0405 23.8235 27.6509 23.8235 27.3531 23.8235C27.3531 23.2063 27.3531 22.676 27.3531 22.0588H30.0002C30.0002 21.4151 30.0002 20.8421 30.0002 20.2941C29.0405 20.2941 27.6509 20.2941 27.3531 20.2941C27.3531 19.6769 27.3531 19.1465 27.3531 18.5294H30.0002C30.0002 17.9813 30.0002 17.4082 30.0002 16.7647C29.0405 16.7647 27.6509 16.7647 27.3531 16.7647C27.3531 16.1475 27.3531 15.6171 27.3531 15H30.0002C30.0002 14.4658 30.0002 13.8822 30.0002 13.2353C29.0405 13.2353 27.6509 13.2353 27.3531 13.2353C27.3531 12.6181 27.3531 12.0877 27.3531 11.4705H30.0002Z" fill="#AAAAAA"/>
<path d="M0 11.4705H2.64706V13.2353C2.34929 13.2353 0.959706 13.2353 0 13.2353V15H2.64706V16.7647C2.34929 16.7647 0.959706 16.7647 0 16.7647V18.5294H2.64706V20.2941C2.34929 20.2941 0.959706 20.2941 0 20.2941V22.0588H2.64706V23.8235C2.34929 23.8235 0.959706 23.8235 0 23.8235V25.5882H2.64706V27.3529C2.34929 27.3529 0.959706 27.3529 0 27.3529V30H5.29412C5.29412 29.9915 5.29412 8.8316 5.29412 8.82349C4.46359 8.82349 1.42576 8.82349 0 8.82349V11.4705Z" fill="#AAAAAA"/>
<path d="M13.2358 30.0002H16.7653V24.7061H13.2358V30.0002Z" fill="#AAAAAA"/>
<path d="M7.05908 29.9999H11.4708V22.941H18.5297V29.9999H22.9414C22.9414 29.2786 22.9414 5.13292 22.9414 4.41162C22.1496 4.41162 7.85144 4.41162 7.05908 4.41162V29.9999ZM17.6473 7.05868H19.412V8.82339C18.7948 8.82339 18.2645 8.82339 17.6473 8.82339C17.6473 8.20621 17.6473 7.67586 17.6473 7.05868ZM17.6473 10.5881H19.412V12.3528C18.7948 12.3528 18.2645 12.3528 17.6473 12.3528C17.6473 11.7356 17.6473 11.2053 17.6473 10.5881ZM17.6473 14.1175H19.412V15.8822C18.7948 15.8822 18.2645 15.8822 17.6473 15.8822C17.6473 15.265 17.6473 14.7347 17.6473 14.1175ZM17.6473 17.6469H19.412V19.4116C18.7948 19.4116 18.2645 19.4116 17.6473 19.4116C17.6473 18.7944 17.6473 18.2641 17.6473 17.6469ZM14.1179 7.05868H15.0003C15.0003 7.05868 15.574 7.05868 15.8826 7.05868V8.82339C15.574 8.82339 15.3088 8.82339 15.0003 8.82339C14.6917 8.82339 14.4265 8.82339 14.1179 8.82339C14.1179 8.20621 14.1179 7.67586 14.1179 7.05868ZM14.1179 10.5881H15.0003C15.0003 10.5881 15.574 10.5881 15.8826 10.5881V12.3528C15.574 12.3528 15.3088 12.3528 15.0003 12.3528C14.6917 12.3528 14.4265 12.3528 14.1179 12.3528C14.1179 11.7356 14.1179 11.2053 14.1179 10.5881ZM14.1179 14.1175H15.0003C15.0003 14.1175 15.574 14.1175 15.8826 14.1175V15.8822C15.574 15.8822 15.3088 15.8822 15.0003 15.8822C14.6917 15.8822 14.4265 15.8822 14.1179 15.8822C14.1179 15.265 14.1179 14.7347 14.1179 14.1175ZM14.1179 17.6469H15.0003C15.0003 17.6469 15.574 17.6469 15.8826 17.6469V19.4116C15.574 19.4116 15.3088 19.4116 15.0003 19.4116C14.6917 19.4116 14.4265 19.4116 14.1179 19.4116C14.1179 18.7944 14.1179 18.2641 14.1179 17.6469ZM10.5885 7.05868H12.3532V8.82339C11.736 8.82339 11.2057 8.82339 10.5885 8.82339C10.5885 8.20621 10.5885 7.67586 10.5885 7.05868ZM10.5885 10.5881H12.3532V12.3528C11.736 12.3528 11.2057 12.3528 10.5885 12.3528C10.5885 11.7356 10.5885 11.2053 10.5885 10.5881ZM10.5885 14.1175H12.3532V15.8822C11.736 15.8822 11.2057 15.8822 10.5885 15.8822C10.5885 15.265 10.5885 14.7347 10.5885 14.1175ZM10.5885 17.6469H12.3532V19.4116C11.736 19.4116 11.2057 19.4116 10.5885 19.4116C10.5885 18.7944 10.5885 18.2641 10.5885 17.6469Z" fill="#AAAAAA"/>
</svg>
