<svg width="60" height="60" viewBox="0 0 60 60" fill="none" xmlns="http://www.w3.org/2000/svg">
<g clip-path="url(#clip0_725_296)">
<path d="M59.3569 23.6125L42.3047 14.5302V5.81988C42.3047 5.17266 41.8254 4.6875 41.1783 4.6875H37.0312V1.11328C37.0312 0.466055 36.5305 0 35.8833 0H6.46687C5.81965 0 5.27344 0.466055 5.27344 1.11328V4.6875H1.17188C0.524648 4.6875 0 5.17277 0 5.81988V58.7695C0 59.4166 0.524648 60 1.17188 60H58.8281C59.4752 60 60 59.4166 60 58.7695V24.6464C60 24.2136 59.7388 23.816 59.3569 23.6125ZM7.61719 2.34375H34.6875V4.6875H7.61719V2.34375ZM2.34375 7.03125H39.9609V57.6562H29.4141V49.3276C29.4141 44.8044 25.7269 41.1328 21.2038 41.1328H21.1465C16.6232 41.1328 12.8906 44.8044 12.8906 49.3276V57.6562H2.34375V7.03125ZM15.2344 57.6562V49.3276C15.2344 46.0968 17.9155 43.4766 21.1464 43.4766H21.2037C24.4345 43.4766 27.0702 46.0966 27.0702 49.3276V57.6562H15.2344ZM57.6562 57.6562H42.3047V17.1864L57.6562 25.3495V57.6562Z" fill="black"/>
<path d="M14.0625 10.5469C14.0625 9.89965 13.5379 9.375 12.8906 9.375H5.85938C5.21215 9.375 4.6875 9.89965 4.6875 10.5469V16.4062C4.6875 17.0535 5.21215 17.5781 5.85938 17.5781H12.8906C13.5379 17.5781 14.0625 17.0535 14.0625 16.4062V10.5469ZM7.03125 11.7188H11.7188V15.2344H7.03125V11.7188Z" fill="black"/>
<path d="M25.8984 10.5469C25.8984 9.89965 25.3738 9.375 24.7266 9.375H17.6953C17.0481 9.375 16.5234 9.89965 16.5234 10.5469V16.4062C16.5234 17.0535 17.0481 17.5781 17.6953 17.5781H24.7266C25.3738 17.5781 25.8984 17.0535 25.8984 16.4062V10.5469ZM18.8672 11.7188H23.5547V15.2344H18.8672V11.7188Z" fill="black"/>
<path d="M37.6172 10.5469C37.6172 9.89965 37.0925 9.375 36.4453 9.375H29.4141C28.7668 9.375 28.2422 9.89965 28.2422 10.5469V16.4062C28.2422 17.0535 28.7668 17.5781 29.4141 17.5781H36.4453C37.0925 17.5781 37.6172 17.0535 37.6172 16.4062V10.5469ZM30.5859 11.7188H35.2734V15.2344H30.5859V11.7188Z" fill="black"/>
<path d="M14.0625 21.0938C14.0625 20.4465 13.5379 19.9219 12.8906 19.9219H5.85938C5.21215 19.9219 4.6875 20.4465 4.6875 21.0938V26.9531C4.6875 27.6004 5.21215 28.125 5.85938 28.125H12.8906C13.5379 28.125 14.0625 27.6004 14.0625 26.9531V21.0938ZM7.03125 22.2656H11.7188V25.7812H7.03125V22.2656Z" fill="black"/>
<path d="M25.8984 21.0938C25.8984 20.4465 25.3738 19.9219 24.7266 19.9219H17.6953C17.0481 19.9219 16.5234 20.4465 16.5234 21.0938V26.9531C16.5234 27.6004 17.0481 28.125 17.6953 28.125H24.7266C25.3738 28.125 25.8984 27.6004 25.8984 26.9531V21.0938ZM18.8672 22.2656H23.5547V25.7812H18.8672V22.2656Z" fill="black"/>
<path d="M37.6172 21.0938C37.6172 20.4465 37.0925 19.9219 36.4453 19.9219H29.4141C28.7668 19.9219 28.2422 20.4465 28.2422 21.0938V26.9531C28.2422 27.6004 28.7668 28.125 29.4141 28.125H36.4453C37.0925 28.125 37.6172 27.6004 37.6172 26.9531V21.0938ZM30.5859 22.2656H35.2734V25.7812H30.5859V22.2656Z" fill="black"/>
<path d="M14.0625 31.7578C14.0625 31.1106 13.5379 30.5859 12.8906 30.5859H5.85938C5.21215 30.5859 4.6875 31.1106 4.6875 31.7578V37.6172C4.6875 38.2644 5.21215 38.7891 5.85938 38.7891H12.8906C13.5379 38.7891 14.0625 38.2644 14.0625 37.6172V31.7578ZM11.7188 36.4453H7.03125V32.9297H11.7188V36.4453Z" fill="black"/>
<path d="M25.8984 31.7578C25.8984 31.1106 25.3738 30.5859 24.7266 30.5859H17.6953C17.0481 30.5859 16.5234 31.1106 16.5234 31.7578V37.6172C16.5234 38.2644 17.0481 38.7891 17.6953 38.7891H24.7266C25.3738 38.7891 25.8984 38.2644 25.8984 37.6172V31.7578ZM18.8672 32.9297H23.5547V36.4453H18.8672V32.9297Z" fill="black"/>
<path d="M37.6172 31.7578C37.6172 31.1106 37.0925 30.5859 36.4453 30.5859H29.4141C28.7668 30.5859 28.2422 31.1106 28.2422 31.7578V37.6172C28.2422 38.2644 28.7668 38.7891 29.4141 38.7891H36.4453C37.0925 38.7891 37.6172 38.2644 37.6172 37.6172V31.7578ZM30.5859 32.9297H35.2734V36.4453H30.5859V32.9297Z" fill="black"/>
<path d="M54.7266 26.9531C54.7266 26.3059 54.2019 25.7812 53.5547 25.7812H46.5234C45.8762 25.7812 45.3516 26.3059 45.3516 26.9531V32.8125C45.3516 33.4597 45.8762 33.9844 46.5234 33.9844H53.5547C54.2019 33.9844 54.7266 33.4597 54.7266 32.8125V26.9531ZM47.6953 28.125H52.3828V31.7578H47.6953V28.125Z" fill="black"/>
<path d="M54.7266 37.6172C54.7266 36.97 54.2019 36.4453 53.5547 36.4453H46.5234C45.8762 36.4453 45.3516 36.97 45.3516 37.6172V43.4766C45.3516 44.1238 45.8762 44.6484 46.5234 44.6484H53.5547C54.2019 44.6484 54.7266 44.1238 54.7266 43.4766V37.6172ZM47.6953 38.7891H52.3828V42.3047H47.6953V38.7891Z" fill="black"/>
<path d="M54.7266 48.1641C54.7266 47.5168 54.2019 46.9922 53.5547 46.9922H46.5234C45.8762 46.9922 45.3516 47.5168 45.3516 48.1641V54.0234C45.3516 54.6707 45.8762 55.1953 46.5234 55.1953H53.5547C54.2019 55.1953 54.7266 54.6707 54.7266 54.0234V48.1641ZM47.6953 49.3359H52.3828V52.8516H47.6953V49.3359Z" fill="black"/>
</g>
<defs>
<clipPath id="clip0_725_296">
<rect width="60" height="60" fill="white"/>
</clipPath>
</defs>
</svg>
