<svg width="30" height="30" viewBox="0 0 30 30" fill="none" xmlns="http://www.w3.org/2000/svg">
<path d="M11.5836 14.0312H4.39453C3.90914 14.0312 3.51562 13.5825 3.51562 13.029C3.51562 12.4755 3.90914 12.0267 4.39453 12.0267L15.1342 11.9666C15.4635 9.97136 16.8336 8.39078 18.5742 7.98615V1.00223C18.5742 0.44873 18.1807 0 17.6953 0H0.878906C0.393516 0 0 0.44873 0 1.00223V24.9889C0 25.5424 0.393516 25.9911 0.878906 25.9911H11.4258V20.8761C11.1563 20.2154 11.0156 19.4906 11.0156 18.7477V16.3096C11.0156 15.4745 11.2239 14.694 11.5836 14.0312ZM4.39453 4.00898H14.1797C14.6651 4.00898 15.0586 4.45771 15.0586 5.0112C15.0586 5.5647 14.6651 6.01343 14.1797 6.01343H4.39453C3.90914 6.01343 3.51562 5.5647 3.51562 5.0112C3.51562 4.45771 3.90914 4.00898 4.39453 4.00898ZM4.39453 8.01788H14.1797C14.6651 8.01788 15.0586 8.46662 15.0586 9.02011C15.0586 9.57361 14.6651 10.0223 14.1797 10.0223H4.39453C3.90914 10.0223 3.51562 9.57361 3.51562 9.02011C3.51562 8.46662 3.90914 8.01788 4.39453 8.01788ZM6.50391 18.0402H4.39453C3.90914 18.0402 3.51562 17.5914 3.51562 17.0379C3.51562 16.4844 3.90914 16.0357 4.39453 16.0357H6.50391C6.9893 16.0357 7.38281 16.4844 7.38281 17.0379C7.38281 17.5914 6.9893 18.0402 6.50391 18.0402Z" fill="#AAAAAA"/>
<path d="M20.4526 23.1179H22.2104V25.1224H20.4526V23.1179Z" fill="#AAAAAA"/>
<path d="M23.9684 24.965V26.1251C23.9684 26.6786 23.5748 27.1273 23.0895 27.1273H19.5738C19.0884 27.1273 18.6949 26.6786 18.6949 26.1251V24.9819L14.2397 23.5782C13.8615 23.4591 13.5081 23.288 13.1836 23.0737V27.2609C13.1836 28.7714 14.2613 30.0003 15.5859 30.0003H27.1874C28.5121 30.0003 29.5898 28.7714 29.5898 27.2609V23.063C29.2566 23.2825 28.8929 23.4569 28.503 23.5762L23.9684 24.965Z" fill="#AAAAAA"/>
<path d="M17.0103 11.9664H25.7635C25.3712 10.8666 24.4242 10.0889 23.3205 10.0889H19.4533C18.3496 10.0889 17.4027 10.8665 17.0103 11.9664Z" fill="#AAAAAA"/>
<path d="M27.9492 13.9707H14.8242C13.6934 13.9707 12.7734 15.0198 12.7734 16.3092V18.7474C12.7734 20.1163 13.5509 21.2809 14.708 21.6455L18.695 22.9017V22.1155C18.695 21.562 19.0885 21.1132 19.5739 21.1132H23.0895C23.5749 21.1132 23.9684 21.562 23.9684 22.1155V22.8889L28.0472 21.6397C29.2152 21.2819 30 20.115 30 18.7359V16.3092C30 15.0198 29.08 13.9707 27.9492 13.9707Z" fill="#AAAAAA"/>
</svg>
