<svg width="30" height="30" viewBox="0 0 30 30" fill="none" xmlns="http://www.w3.org/2000/svg">
<path d="M21.7417 9.86667L24.7356 4.52063H8.18066V16.0521H24.7356L21.7417 10.7061C21.5957 10.4454 21.5956 10.1274 21.7417 9.86667Z" fill="#73D0F4"/>
<path d="M23.4756 10.2864L26.9506 4.08136C27.0995 3.8153 27.0963 3.49032 26.9423 3.22727C26.7881 2.96421 26.5061 2.80258 26.2011 2.80258H8.18058V0.858963C8.18058 0.384529 7.79605 0 7.32161 0H3.79915C3.32471 0 2.94019 0.384529 2.94019 0.858963V29.141C2.94019 29.6154 3.32471 30 3.79915 30H7.32161C7.79605 30 8.18058 29.6154 8.18058 29.141V17.7699H26.2011C26.5061 17.7699 26.788 17.6083 26.9423 17.3453C27.0963 17.0822 27.0995 16.7572 26.9506 16.4912L23.4756 10.2864ZM6.46265 28.2821H4.65811V4.52058H6.46265V28.2821ZM6.46265 2.80265H4.65811V1.71793H6.46265V2.80265ZM8.18058 16.052V4.52058H24.7355L21.7416 9.86662C21.5955 10.1274 21.5956 10.4453 21.7416 10.706L24.7355 16.052H8.18058Z" fill="#3D6889"/>
</svg>
