<svg width="24" height="24" viewBox="0 0 24 24" fill="none" xmlns="http://www.w3.org/2000/svg">
<path d="M12 0C18.6274 0 24 5.37258 24 12C24 18.6274 18.6274 24 12 24C5.37258 24 0 18.6274 0 12C0 5.37258 5.37258 0 12 0ZM12 1.67442C6.29734 1.67442 1.67442 6.29734 1.67442 12C1.67442 17.7027 6.29734 22.3256 12 22.3256C17.7027 22.3256 22.3256 17.7027 22.3256 12C22.3256 6.29734 17.7027 1.67442 12 1.67442ZM11.8258 8.65116C12.2881 8.65116 12.663 9.02599 12.663 9.48837V18.5582C12.663 19.0205 12.2881 19.3954 11.8258 19.3954C11.3634 19.3954 10.9886 19.0205 10.9886 18.5582V9.48837C10.9886 9.02599 11.3634 8.65116 11.8258 8.65116ZM11.8595 5.30233C12.476 5.30233 12.9758 5.8021 12.9758 6.41861C12.9758 7.03511 12.476 7.53488 11.8595 7.53488C11.243 7.53488 10.7432 7.03511 10.7432 6.41861C10.7432 5.8021 11.243 5.30233 11.8595 5.30233Z" fill="#AAAAAA"/>
</svg>
